<svg width="62" height="62" xmlns="http://www.w3.org/2000/svg">

 <g>
  <title>background</title>
  <rect fill="none" id="canvas_background" height="64" width="64" y="-1" x="-1"/>
 </g>
 <g>
  <title>Layer 1</title>
  <g id="svg_1">
   <g id="svg_2">
    <path id="svg_3" d="m-95.883,25.261" fill="#FFFFFF"/>
   </g>
   <g id="svg_4">
    <g id="svg_5">
     <g id="svg_6">
      <polyline id="svg_7" points="5.016998291015625,16.1199951171875 5.016998291015625,16.1199951171875 5.016998291015625,16.1199951171875 5.016998291015625,16.1199951171875 5.016998291015625,16.1199951171875 5.016998291015625,16.1199951171875 5.016998291015625,16.1199951171875 5.016998291015625,16.1199951171875 5.016998291015625,16.1199951171875 5.016998291015625,16.1199951171875 " fill="none"/>
     </g>
    </g>
    <g id="svg_8">
     <g id="svg_9">
      <polyline id="svg_10" points="5.016998291015625,16.1199951171875 5.016998291015625,16.1199951171875 5.016998291015625,16.1199951171875 5.016998291015625,16.1199951171875 5.016998291015625,16.1199951171875 5.016998291015625,16.1199951171875 5.016998291015625,16.1199951171875 5.016998291015625,16.1199951171875 " fill="none"/>
     </g>
    </g>
    <g id="svg_11">
     <g id="svg_12">
      <polyline id="svg_13" points="5.016998291015625,16.1199951171875 5.016998291015625,16.1199951171875 5.016998291015625,16.1199951171875 5.016998291015625,16.1199951171875 " fill="none"/>
     </g>
    </g>
    <g id="svg_14">
     <g id="svg_15">
      <path id="svg_16" d="m5.017,16.12"/>
     </g>
    </g>
   </g>
   <path id="svg_17" d="m25.98,50.215c-2.344,-0.536 -3.68,-2.914 -3.097,-4.579c-6.44,3.197 -12.483,2.971 -18.131,-0.678c0.041,0.104 0.082,0.208 0.124,0.312c6.681,10.741 16.851,15.481 30.51,14.221c3.236,-7.521 3.861,-13.971 1.874,-19.351c-1.248,-1.697 -3.004,-1.71 -5.268,-0.041c-0.961,0.561 -1.489,3.06 -1.584,7.499c-0.266,1.98 -1.743,2.853 -4.428,2.617" fill="#FCC414" clip-rule="evenodd" fill-rule="evenodd"/>
   <path id="svg_18" d="m4.752,44.958c5.648,3.649 11.691,3.875 18.131,0.678c0.16,-0.457 0.464,-0.86 0.932,-1.157c2.521,-1.906 3.361,-3.856 2.521,-5.85c-0.85,-3.058 -4.675,-4.436 -11.473,-4.137c-3.756,0.08 -5.555,-1.439 -5.397,-4.557c0.498,-2.718 1.92,-4.086 4.266,-4.105c0.537,-0.086 1.049,-0.066 1.537,0.058c-3.75,-4.456 -5.289,-9.947 -4.617,-16.473c-0.159,0.142 -0.316,0.287 -0.473,0.433c-9.212,9.231 -11.02,20.934 -5.427,35.11" fill="#F59E1B" clip-rule="evenodd" fill-rule="evenodd"/>
   <path id="svg_19" d="m15.267,25.888c0.896,0.229 1.709,0.813 2.438,1.752c2.473,1.993 4.859,2.661 7.159,2.004c1.945,-0.811 2.463,-2.33 1.552,-4.557c-1.062,-1.742 -2.796,-3.39 -5.204,-4.945c-1.717,-1.979 -1.544,-3.929 0.517,-5.85c1.455,-1.012 2.964,-1.12 4.525,-0.323c0.666,0.23 1.268,1.105 1.805,2.623c-0.693,-7.092 -0.405,-12.033 0.862,-14.824c-7.258,0.684 -13.349,3.233 -18.273,7.647c-0.67,6.526 0.869,12.017 4.619,16.473" fill="#EC6922" clip-rule="evenodd" fill-rule="evenodd"/>
   <path id="svg_20" d="m28.06,16.592c0.302,0.852 0.583,1.906 0.845,3.162c0.582,2.774 1.498,4.595 2.747,5.462c1.194,0.532 1.899,0.15 2.117,-1.147c0.123,-1.364 -0.001,-3.055 -0.372,-5.074c-0.393,-3.504 0.857,-5.282 3.749,-5.333c2.727,0.436 3.794,1.923 3.2,4.46c1.971,-3.824 6.071,-6.31 12.301,-7.458c-5.227,-6.048 -13.135,-9.013 -23.724,-8.896c-1.268,2.791 -1.555,7.732 -0.863,14.824" fill="#383C8F" clip-rule="evenodd" fill-rule="evenodd"/>
   <path id="svg_21" d="m40.346,18.122c-1.623,2.394 -2.765,4.452 -3.426,6.173c-0.578,1.829 -0.481,3.122 0.291,3.878c2.344,1.144 4.701,-2.734 7.004,-4.736c1.918,-1.668 4.619,-0.639 5.277,2.118c0.264,1.68 -0.316,2.863 -1.743,3.549c5.066,-0.177 8.928,2.53 11.585,8.121l-0.003,-0.301c0.798,-11.687 -1.249,-20.719 -6.399,-25.925c-0.094,-0.113 -0.189,-0.225 -0.285,-0.336c-6.23,1.149 -10.33,3.635 -12.301,7.459" fill="#0FA8E0" clip-rule="evenodd" fill-rule="evenodd"/>
   <path id="svg_22" d="m46.195,29.595c-2.898,0.535 -4.848,1.182 -5.85,1.94c-1.47,1.845 -1.297,3.45 0.517,4.816c4.689,5.427 6.13,13.785 4.845,23.139l14.131,0.072l-0.505,-22.337c-2.657,-5.591 -6.519,-8.298 -11.585,-8.121c-0.437,0.211 -0.955,0.375 -1.553,0.491" fill="#61C1D2" clip-rule="evenodd" fill-rule="evenodd"/>
  </g>
 </g>
</svg>